<svg width="1200" height="850" xmlns="http://www.w3.org/2000/svg">
  <!-- Background -->
  <rect width="1200" height="850" fill="#f8f9fa"/>
  
  <!-- Header -->
  <rect x="0" y="0" width="1200" height="80" fill="#007cc5"/>
  <text x="30" y="50" font-family="Arial, sans-serif" font-size="24" font-weight="bold" fill="white">勤怠管理システム</text>
  <text x="1050" y="50" font-family="Arial, sans-serif" font-size="14" fill="white">ユーザー名 ▼</text>
  
  <!-- Sidebar Menu -->
  <rect x="0" y="80" width="250" height="770" fill="#e9ecef" stroke="#dee2e6" stroke-width="1"/>
  <text x="20" y="120" font-family="Arial, sans-serif" font-size="16" font-weight="bold" fill="#495057">メニュー</text>
  
  <rect x="20" y="140" width="210" height="40" fill="#007cc5" stroke="none" rx="5"/>
  <text x="35" y="166" font-family="Arial, sans-serif" font-size="14" fill="white">🏠 ダッシュボード</text>
  
  <rect x="20" y="190" width="210" height="40" fill="#6c757d" stroke="none" rx="5"/>
  <text x="35" y="216" font-family="Arial, sans-serif" font-size="14" fill="white">📊 勤務実績</text>
  
  <rect x="20" y="240" width="210" height="40" fill="#e9ecef" stroke="#ced4da" stroke-width="1" rx="5"/>
  <text x="35" y="266" font-family="Arial, sans-serif" font-size="14" fill="#495057">⚙️ 設定</text>
  
  <!-- Main Content Area -->
  <rect x="270" y="100" width="910" height="730" fill="white" stroke="#dee2e6" stroke-width="2" rx="10"/>
  
  <!-- Month Navigation -->
  <g>
    <rect x="420" y="118" width="40" height="30" fill="#007cc5" stroke="none" rx="3"/>
    <text x="440" y="139" font-family="Arial, sans-serif" font-size="16" font-weight="bold" text-anchor="middle" fill="white">◀</text>
    
    <rect x="470" y="118" width="180" height="30" fill="white" stroke="#ced4da" stroke-width="1" rx="3"/>
    <text x="560" y="139" font-family="Arial, sans-serif" font-size="14" font-weight="bold" text-anchor="middle" fill="#495057">2025年12月</text>
    
    <rect x="660" y="118" width="40" height="30" fill="#007cc5" stroke="none" rx="3"/>
    <text x="680" y="139" font-family="Arial, sans-serif" font-size="16" font-weight="bold" text-anchor="middle" fill="white">▶</text>
  </g>
  
  <!-- Summary Section -->
  <rect x="290" y="165" width="880" height="100" fill="#007cc5" fill-opacity="0.15" stroke="#007cc5" stroke-width="3" rx="8"/>
  <g transform="translate(730, 195)">
    <text x="-150" y="20" font-family="Arial, sans-serif" font-size="16" font-weight="bold" text-anchor="middle" fill="#666">勤務時間</text>
    <text x="-150" y="50" font-family="Arial, sans-serif" font-size="28" font-weight="bold" text-anchor="middle" fill="#007cc5">63時間15分</text>
  </g>
  <g transform="translate(730, 195)">
    <text x="150" y="20" font-family="Arial, sans-serif" font-size="16" font-weight="bold" text-anchor="middle" fill="#666">残業時間</text>
    <text x="150" y="50" font-family="Arial, sans-serif" font-size="28" font-weight="bold" text-anchor="middle" fill="#dc3545">5時間15分</text>
  </g>
  
  <!-- Table -->
  <rect x="290" y="280" width="880" height="470" fill="white" stroke="#dee2e6" stroke-width="1" rx="5"/>
  
  <!-- Table Header -->
  <rect x="290" y="280" width="880" height="40" fill="#007cc5" stroke="none" rx="5 5 0 0"/>
  <text x="310" y="306" font-family="Arial, sans-serif" font-size="13" font-weight="bold" fill="white">日付</text>
  <text x="420" y="306" font-family="Arial, sans-serif" font-size="13" font-weight="bold" fill="white">曜日</text>
  <text x="500" y="306" font-family="Arial, sans-serif" font-size="13" font-weight="bold" fill="white">出勤</text>
  <text x="600" y="306" font-family="Arial, sans-serif" font-size="13" font-weight="bold" fill="white">退勤</text>
  <text x="700" y="306" font-family="Arial, sans-serif" font-size="13" font-weight="bold" fill="white">勤務時間</text>
  <text x="840" y="306" font-family="Arial, sans-serif" font-size="13" font-weight="bold" fill="white">残業時間</text>
  <text x="1000" y="306" font-family="Arial, sans-serif" font-size="13" font-weight="bold" fill="white">ステータス</text>
  
  <!-- Row 1: 12/8 (月) -->
  <rect x="290" y="320" width="880" height="40" fill="#f8f9fa" stroke="#dee2e6" stroke-width="1"/>
  <text x="310" y="345" font-family="Arial, sans-serif" font-size="12" fill="#212529">12/8</text>
  <text x="420" y="345" font-family="Arial, sans-serif" font-size="12" fill="#212529">月</text>
  <text x="500" y="345" font-family="Arial, sans-serif" font-size="12" fill="#212529">09:00</text>
  <text x="600" y="345" font-family="Arial, sans-serif" font-size="12" fill="#212529">18:00</text>
  <text x="700" y="345" font-family="Arial, sans-serif" font-size="12" fill="#212529">9時間00分</text>
  <text x="840" y="345" font-family="Arial, sans-serif" font-size="12" fill="#dc3545">1時間00分</text>
  <rect x="980" y="327" width="170" height="22" fill="#6c757d" fill-opacity="0.2" stroke="#6c757d" stroke-width="1" rx="3"/>
  <text x="1065" y="343" font-family="Arial, sans-serif" font-size="10" font-weight="bold" text-anchor="middle" fill="#6c757d">退勤済み</text>
  
  <!-- Row 2: 12/7 (日) - Holiday -->
  <rect x="290" y="360" width="880" height="40" fill="white" stroke="#dee2e6" stroke-width="1"/>
  <text x="310" y="385" font-family="Arial, sans-serif" font-size="12" fill="#999">12/7</text>
  <text x="420" y="385" font-family="Arial, sans-serif" font-size="12" fill="#999">日</text>
  <text x="500" y="385" font-family="Arial, sans-serif" font-size="12" fill="#999">-</text>
  <text x="600" y="385" font-family="Arial, sans-serif" font-size="12" fill="#999">-</text>
  <text x="700" y="385" font-family="Arial, sans-serif" font-size="12" fill="#999">-</text>
  <text x="840" y="385" font-family="Arial, sans-serif" font-size="12" fill="#999">-</text>
  <rect x="980" y="367" width="170" height="22" fill="#6c757d" fill-opacity="0.2" stroke="#6c757d" stroke-width="1" rx="3"/>
  <text x="1065" y="383" font-family="Arial, sans-serif" font-size="10" font-weight="bold" text-anchor="middle" fill="#6c757d">休日</text>
  
  <!-- Row 3: 12/6 (土) - Holiday -->
  <rect x="290" y="400" width="880" height="40" fill="#f8f9fa" stroke="#dee2e6" stroke-width="1"/>
  <text x="310" y="425" font-family="Arial, sans-serif" font-size="12" fill="#999">12/6</text>
  <text x="420" y="425" font-family="Arial, sans-serif" font-size="12" fill="#999">土</text>
  <text x="500" y="425" font-family="Arial, sans-serif" font-size="12" fill="#999">-</text>
  <text x="600" y="425" font-family="Arial, sans-serif" font-size="12" fill="#999">-</text>
  <text x="700" y="425" font-family="Arial, sans-serif" font-size="12" fill="#999">-</text>
  <text x="840" y="425" font-family="Arial, sans-serif" font-size="12" fill="#999">-</text>
  <rect x="980" y="407" width="170" height="22" fill="#6c757d" fill-opacity="0.2" stroke="#6c757d" stroke-width="1" rx="3"/>
  <text x="1065" y="423" font-family="Arial, sans-serif" font-size="10" font-weight="bold" text-anchor="middle" fill="#6c757d">休日</text>
  
  <!-- Row 4: 12/5 (金) -->
  <rect x="290" y="440" width="880" height="40" fill="white" stroke="#dee2e6" stroke-width="1"/>
  <text x="310" y="465" font-family="Arial, sans-serif" font-size="12" fill="#212529">12/5</text>
  <text x="420" y="465" font-family="Arial, sans-serif" font-size="12" fill="#212529">金</text>
  <text x="500" y="465" font-family="Arial, sans-serif" font-size="12" fill="#212529">08:55</text>
  <text x="600" y="465" font-family="Arial, sans-serif" font-size="12" fill="#212529">17:50</text>
  <text x="700" y="465" font-family="Arial, sans-serif" font-size="12" fill="#212529">8時間55分</text>
  <text x="840" y="465" font-family="Arial, sans-serif" font-size="12" fill="#dc3545">0時間55分</text>
  <rect x="980" y="447" width="170" height="22" fill="#6c757d" fill-opacity="0.2" stroke="#6c757d" stroke-width="1" rx="3"/>
  <text x="1065" y="463" font-family="Arial, sans-serif" font-size="10" font-weight="bold" text-anchor="middle" fill="#6c757d">退勤済み</text>
  
  <!-- Row 5: 12/4 (木) -->
  <rect x="290" y="480" width="880" height="40" fill="#f8f9fa" stroke="#dee2e6" stroke-width="1"/>
  <text x="310" y="505" font-family="Arial, sans-serif" font-size="12" fill="#212529">12/4</text>
  <text x="420" y="505" font-family="Arial, sans-serif" font-size="12" fill="#212529">木</text>
  <text x="500" y="505" font-family="Arial, sans-serif" font-size="12" fill="#212529">09:10</text>
  <text x="600" y="505" font-family="Arial, sans-serif" font-size="12" fill="#212529">18:30</text>
  <text x="700" y="505" font-family="Arial, sans-serif" font-size="12" fill="#212529">9時間20分</text>
  <text x="840" y="505" font-family="Arial, sans-serif" font-size="12" fill="#dc3545">1時間20分</text>
  <rect x="980" y="487" width="170" height="22" fill="#6c757d" fill-opacity="0.2" stroke="#6c757d" stroke-width="1" rx="3"/>
  <text x="1065" y="503" font-family="Arial, sans-serif" font-size="10" font-weight="bold" text-anchor="middle" fill="#6c757d">退勤済み</text>
  
  <!-- Row 6: 12/3 (水) - Working -->
  <rect x="290" y="520" width="880" height="40" fill="white" stroke="#dee2e6" stroke-width="1"/>
  <text x="310" y="545" font-family="Arial, sans-serif" font-size="12" fill="#212529">12/3</text>
  <text x="420" y="545" font-family="Arial, sans-serif" font-size="12" fill="#212529">水</text>
  <text x="500" y="545" font-family="Arial, sans-serif" font-size="12" fill="#212529">09:00</text>
  <text x="600" y="545" font-family="Arial, sans-serif" font-size="12" fill="#28a745">勤務中</text>
  <text x="700" y="545" font-family="Arial, sans-serif" font-size="12" fill="#28a745">-</text>
  <text x="840" y="545" font-family="Arial, sans-serif" font-size="12" fill="#28a745">-</text>
  <rect x="980" y="527" width="170" height="22" fill="#28a745" fill-opacity="0.2" stroke="#28a745" stroke-width="1" rx="3"/>
  <text x="1065" y="543" font-family="Arial, sans-serif" font-size="10" font-weight="bold" text-anchor="middle" fill="#28a745">勤務中</text>
  
  <!-- Row 7: 12/2 (火) - No entry -->
  <rect x="290" y="560" width="880" height="40" fill="#f8f9fa" stroke="#dee2e6" stroke-width="1"/>
  <text x="310" y="585" font-family="Arial, sans-serif" font-size="12" fill="#999">12/2</text>
  <text x="420" y="585" font-family="Arial, sans-serif" font-size="12" fill="#999">火</text>
  <text x="500" y="585" font-family="Arial, sans-serif" font-size="12" fill="#999">-</text>
  <text x="600" y="585" font-family="Arial, sans-serif" font-size="12" fill="#999">-</text>
  <text x="700" y="585" font-family="Arial, sans-serif" font-size="12" fill="#999">-</text>
  <text x="840" y="585" font-family="Arial, sans-serif" font-size="12" fill="#999">-</text>
  <rect x="980" y="567" width="170" height="22" fill="#ffc107" fill-opacity="0.2" stroke="#ffc107" stroke-width="1" rx="3"/>
  <text x="1065" y="583" font-family="Arial, sans-serif" font-size="10" font-weight="bold" text-anchor="middle" fill="#856404">打刻なし</text>
  
  <!-- Row 8: 12/1 (月) -->
  <rect x="290" y="600" width="880" height="40" fill="white" stroke="#dee2e6" stroke-width="1"/>
  <text x="310" y="625" font-family="Arial, sans-serif" font-size="12" fill="#212529">12/1</text>
  <text x="420" y="625" font-family="Arial, sans-serif" font-size="12" fill="#212529">月</text>
  <text x="500" y="625" font-family="Arial, sans-serif" font-size="12" fill="#212529">09:05</text>
  <text x="600" y="625" font-family="Arial, sans-serif" font-size="12" fill="#212529">18:00</text>
  <text x="700" y="625" font-family="Arial, sans-serif" font-size="12" fill="#212529">8時間55分</text>
  <text x="840" y="625" font-family="Arial, sans-serif" font-size="12" fill="#dc3545">0時間55分</text>
  <rect x="980" y="607" width="170" height="22" fill="#6c757d" fill-opacity="0.2" stroke="#6c757d" stroke-width="1" rx="3"/>
  <text x="1065" y="623" font-family="Arial, sans-serif" font-size="10" font-weight="bold" text-anchor="middle" fill="#6c757d">退勤済み</text>
  
  <!-- Pagination at bottom -->
  <g transform="translate(650, 780)">
    <rect x="0" y="0" width="40" height="30" fill="#007cc5" stroke="none" rx="3"/>
    <text x="20" y="21" font-family="Arial, sans-serif" font-size="14" font-weight="bold" text-anchor="middle" fill="white">◀</text>
    
    <text x="80" y="21" font-family="Arial, sans-serif" font-size="13" text-anchor="middle" fill="#6c757d">ページ: 1/2</text>
    
    <rect x="120" y="0" width="40" height="30" fill="#007cc5" stroke="none" rx="3"/>
    <text x="140" y="21" font-family="Arial, sans-serif" font-size="14" font-weight="bold" text-anchor="middle" fill="white">▶</text>
  </g>
</svg>
